<svg width="38" height="25" viewBox="0 0 38 25" fill="none" xmlns="http://www.w3.org/2000/svg">
<path d="M27.0723 12.2344H21.7423C21.7431 12.0488 21.7073 11.865 21.637 11.6933C21.5666 11.5217 21.4631 11.3656 21.3323 11.234L14.1245 4.03847H9.5489L16.3098 10.7994C16.4987 10.9875 16.6486 11.2112 16.7509 11.4574C16.8532 11.7037 16.9059 11.9677 16.9059 12.2344C16.9059 12.501 16.8532 12.7651 16.7509 13.0113C16.6486 13.2576 16.4987 13.4812 16.3098 13.6694L5.6047 24.3827H0L11.1479 13.2307C11.412 12.9656 11.5603 12.6066 11.5603 12.2323C11.5603 11.8581 11.412 11.4991 11.1479 11.234L0 0.0819702H15.7645L26.4778 10.7953C26.6673 10.9838 26.8174 11.2081 26.9195 11.4551C27.0216 11.7022 27.0735 11.9671 27.0723 12.2344Z" fill="#00AD8C"/>
<path d="M36.6499 13.6653L25.9366 24.3827H10.1721L21.32 13.2307C21.4507 13.0998 21.5542 12.9445 21.6245 12.7735C21.6949 12.6025 21.7307 12.4193 21.73 12.2344H27.06C27.0603 12.5003 27.008 12.7637 26.9059 13.0093C26.8039 13.2549 26.6542 13.4779 26.4655 13.6653L19.7087 20.4262H24.2843L31.4798 13.2307C31.7439 12.9656 31.8923 12.6066 31.8923 12.2323C31.8923 11.8581 31.7439 11.4991 31.4798 11.234L20.3401 0.0819702H25.9366L36.6499 10.7953C36.8388 10.9834 36.9887 11.2071 37.091 11.4533C37.1933 11.6996 37.246 11.9636 37.246 12.2303C37.246 12.4969 37.1933 12.761 37.091 13.0072C36.9887 13.2535 36.8388 13.4771 36.6499 13.6653Z" fill="#002059"/>
</svg>
